<svg xmlns="http://www.w3.org/2000/svg" xmlns:xlink="http://www.w3.org/1999/xlink" xmlns:lucid="lucid" width="1034.89" height="910.74"><g transform="translate(-73.66666666666697 10.333333333333371)" lucid:page-tab-id="0_0"><path d="M0-500h1500v1500H0z" fill="#fff"/><path d="M74.67 66a6 6 0 0 1 6-6h1020.9a6 6 0 0 1 6 6v827.4a6 6 0 0 1-6 6H80.66a6 6 0 0 1-6-6z" fill-opacity="0"/><path d="M92.63 60h7.98m7.98 0h7.98m7.97 0h7.98m8 0h7.96m7.98 0h7.97m8 0h7.96m7.98 0h7.97m8 0h7.97m7.97 0h7.98m7.97 0h7.97m7.98 0h7.97m7.98 0h7.97m7.98 0h7.97m7.98 0h7.98m7.97 0h7.98m7.97 0h7.98m7.97 0h7.98m7.98 0h7.98m7.98 0h7.97m7.98 0h7.98m7.98 0h7.98m7.97 0h8m7.96 0h7.98m7.97 0h8m7.97 0h7.97m7.98 0h7.97m7.97 0h7.97m7.98 0h7.98m7.97 0h7.98m7.97 0h7.98m7.97 0h7.98m7.98 0h7.97m7.98 0h7.97m7.98 0H627m7.98 0h7.98m7.97 0h7.98m7.98 0h7.98m7.98 0h7.97m8 0h7.96m7.98 0h7.97m8 0h7.96m7.98 0h7.98m7.97 0h7.97m7.97 0h7.98m7.98 0h7.97m7.98 0h7.97m7.98 0h7.97m7.98 0h7.98m7.97 0h7.98m7.97 0h7.98m7.97 0h7.98m7.98 0h7.97m7.98 0h7.98m7.98 0h7.97m7.98 0h8m7.96 0h7.98m7.97 0h8m7.96 0h7.98m7.98 0h7.97m7.97 0h7.97m7.98 0h7.97m7.97 0h7.98m7.97 0h7.98m7.97 0h4a6 6 0 0 1 6 6v3.98m0 7.95v7.96m0 7.94v7.96m0 7.96v7.95m0 7.97v7.95m0 7.96v7.96m0 7.95v7.95m0 7.95v7.96m0 7.95v7.97m0 7.96v7.95m0 7.96v7.96m0 7.95V245m0 7.96v7.96m0 7.95v7.96m0 7.96v7.94m0 7.96v7.95m0 7.96v7.96m0 7.96v7.96m0 7.95v7.96m0 7.94v7.96m0 7.96v7.95m0 7.97v7.95m0 7.96v7.96m0 7.95v7.95m0 7.95v7.96m0 7.95v7.97m0 7.96v7.95m0 7.96v7.95m0 7.95v7.95m0 7.96v7.96m0 7.95v7.96m0 7.95v7.96m0 7.96v7.95m0 7.96v7.96m0 7.96v7.96m0 7.95v7.96m0 7.94v7.96m0 7.95v7.96m0 7.97v7.95m0 7.96v7.95m0 7.96v7.95m0 7.95v7.96m0 7.95v7.97m0 7.95v7.96m0 7.96v7.95m0 7.95V786m0 7.96v7.95m0 7.97v7.96m0 7.95v7.96m0 7.95v7.95m0 7.96v7.96m0 7.96v7.95m0 7.96v3.98a6 6 0 0 1-6 6h-4m-7.97 0h-7.98m-7.97 0h-7.98m-7.98 0h-7.98m-7.98 0h-7.97m-7.98 0h-7.98m-7.98 0h-7.98m-7.97 0h-8m-7.96 0h-7.98m-7.97 0h-8m-7.97 0h-7.97m-7.98 0h-7.97m-7.97 0h-7.98m-7.97 0h-7.98m-7.97 0h-7.98m-7.97 0h-7.98m-7.97 0h-7.98m-7.98 0h-7.97m-7.98 0h-7.97m-7.98 0h-7.98m-7.98 0h-7.98m-7.97 0h-7.98m-7.98 0h-7.98m-7.98 0h-7.97m-8 0h-7.96m-7.98 0h-7.97m-8 0h-7.96m-7.98 0h-7.98m-7.97 0h-7.97m-7.97 0h-7.98m-7.98 0h-7.97m-7.98 0h-7.97m-7.98 0h-7.97m-7.98 0h-7.98m-7.97 0h-7.98m-7.97 0h-7.98m-7.97 0h-7.98m-7.98 0h-7.97m-7.98 0h-7.98m-7.98 0h-7.97m-7.98 0h-8m-7.96 0h-7.98m-7.97 0h-8m-7.96 0h-7.98m-7.98 0h-7.97m-7.97 0h-7.97m-7.98 0h-7.97m-7.97 0h-7.98m-7.97 0h-7.98m-7.97 0h-7.98m-7.97 0H300m-7.98 0h-7.97m-7.98 0h-7.97m-7.98 0h-7.97m-7.98 0h-7.98m-7.98 0h-7.98m-7.97 0h-7.98m-8 0h-7.96m-7.98 0h-7.97m-8 0h-7.96m-7.98 0h-7.97m-8 0h-7.97m-7.97 0h-7.98m-7.97 0h-7.97m-7.97 0h-4a6 6 0 0 1-6-6v-3.97m0-7.96v-7.95m0-7.96v-7.95m0-7.95v-7.96m0-7.96v-7.96m0-7.95v-7.96m0-7.96v-7.94m0-7.96v-7.95m0-7.96v-7.96m0-7.96v-7.96m0-7.95v-7.96m0-7.94v-7.96m0-7.95v-7.96m0-7.97v-7.95m0-7.96v-7.95m0-7.96v-7.95m0-7.95v-7.96m0-7.95v-7.97m0-7.95V603m0-7.96v-7.95m0-7.95v-7.95m0-7.96v-7.96m0-7.95v-7.96m0-7.95v-7.96m0-7.96v-7.95m0-7.96v-7.96m0-7.96v-7.95m0-7.96v-7.96m0-7.94v-7.96m0-7.95V428m0-7.96v-7.96m0-7.96v-7.95m0-7.96v-7.94m0-7.96v-7.96m0-7.95v-7.97m0-7.95v-7.96m0-7.95v-7.96m0-7.95v-7.95m0-7.96v-7.95m0-7.97v-7.96m0-7.95v-7.96m0-7.95v-7.95m0-7.96v-7.96m0-7.96v-7.95m0-7.96v-7.96m0-7.94v-7.96m0-7.95v-7.96m0-7.96v-7.96m0-7.96v-7.95m0-7.96v-7.94m0-7.96v-7.95m0-7.96v-7.97m0-7.95V66a6 6 0 0 1 6-6h4" stroke="#000" stroke-width="2" fill="none"/><use xlink:href="#a" transform="matrix(1,0,0,1,86.66666666666697,72.00000000000006) translate(0 21.52777777777778)"/><use xlink:href="#b" transform="matrix(1,0,0,1,86.66666666666697,72.00000000000006) translate(56.477864583333336 21.52777777777778)"/><path d="M112.65 154.18a6 6 0 0 1 6-6h275.9a6 6 0 0 1 6 6v576.38a6 6 0 0 1-6 6h-275.9a6 6 0 0 1-6-6z" stroke="#6db1ff" stroke-width="4" fill="#edf5ff"/><use xlink:href="#c" transform="matrix(1,0,0,1,124.64611590628874,160.17642805495305) translate(52.2907986111111 17.22222222222222)"/><use xlink:href="#d" transform="matrix(1,0,0,1,124.64611590628874,160.17642805495305) translate(146.7873263888889 17.22222222222222)"/><use xlink:href="#e" transform="matrix(1,0,0,1,124.64611590628874,160.17642805495305) translate(194.49565972222223 17.22222222222222)"/><use xlink:href="#f" transform="matrix(1,0,0,1,124.64611590628874,160.17642805495305) translate(81.90451388888889 43.034722222222214)"/><use xlink:href="#g" transform="matrix(1,0,0,1,124.64611590628874,160.17642805495305) translate(133.27604166666666 43.034722222222214)"/><use xlink:href="#h" transform="matrix(1,0,0,1,124.64611590628874,160.17642805495305) translate(174.86458333333331 43.034722222222214)"/><path d="M447.17 154.18a6 6 0 0 1 6-6h275.9a6 6 0 0 1 6 6v576.38a6 6 0 0 1-6 6h-275.9a6 6 0 0 1-6-6z" stroke="#fc9432" stroke-width="4" fill="#fff3d9"/><use xlink:href="#c" transform="matrix(1,0,0,1,459.1681052198931,160.17642805495305) translate(51.8394097222222 17.22222222222222)"/><use xlink:href="#d" transform="matrix(1,0,0,1,459.1681052198931,160.17642805495305) translate(146.3359375 17.22222222222222)"/><use xlink:href="#i" transform="matrix(1,0,0,1,459.1681052198931,160.17642805495305) translate(194.04427083333334 17.22222222222222)"/><use xlink:href="#f" transform="matrix(1,0,0,1,459.1681052198931,160.17642805495305) translate(80.09895833333334 43.034722222222214)"/><use xlink:href="#g" transform="matrix(1,0,0,1,459.1681052198931,160.17642805495305) translate(131.47048611111111 43.034722222222214)"/><use xlink:href="#j" transform="matrix(1,0,0,1,459.1681052198931,160.17642805495305) translate(173.05902777777777 43.034722222222214)"/><path d="M781.7 154.18a6 6 0 0 1 6-6h275.88a6 6 0 0 1 6 6v576.38a6 6 0 0 1-6 6h-275.9a6 6 0 0 1-6-6z" stroke="#e08fff" stroke-width="4" fill="#fbf0ff"/><use xlink:href="#c" transform="matrix(1,0,0,1,793.6900945334976,160.17642805495305) translate(52.20399305555554 17.22222222222222)"/><use xlink:href="#d" transform="matrix(1,0,0,1,793.6900945334976,160.17642805495305) translate(146.70052083333334 17.22222222222222)"/><use xlink:href="#k" transform="matrix(1,0,0,1,793.6900945334976,160.17642805495305) translate(194.40885416666669 17.22222222222222)"/><use xlink:href="#f" transform="matrix(1,0,0,1,793.6900945334976,160.17642805495305) translate(80.02951388888889 43.034722222222214)"/><use xlink:href="#g" transform="matrix(1,0,0,1,793.6900945334976,160.17642805495305) translate(131.40104166666666 43.034722222222214)"/><use xlink:href="#l" transform="matrix(1,0,0,1,793.6900945334976,160.17642805495305) translate(172.98958333333331 43.034722222222214)"/><path d="M139.93 253.33a6 6 0 0 1 6-6h221.33a6 6 0 0 1 6 6V328a6 6 0 0 1-6 6H145.93a6 6 0 0 1-6-6z" stroke="#00c2a8" stroke-width="4" fill="#d7faf5"/><use xlink:href="#m" transform="matrix(1,0,0,1,144.92519523222384,252.33333333333337) translate(0 17.22222222222222)"/><use xlink:href="#n" transform="matrix(1,0,0,1,144.92519523222384,252.33333333333337) translate(50.46006944444444 17.22222222222222)"/><use xlink:href="#o" transform="matrix(1,0,0,1,144.92519523222384,252.33333333333337) translate(0 40.88194444444444)"/><use xlink:href="#p" transform="matrix(1,0,0,1,144.92519523222384,252.33333333333337) translate(45.261501736111114 40.88194444444444)"/><use xlink:href="#q" transform="matrix(1,0,0,1,144.92519523222384,252.33333333333337) translate(0 63.46788194444444)"/><path d="M474.45 253.33a6 6 0 0 1 6-6h221.33a6 6 0 0 1 6 6V328a6 6 0 0 1-6 6H480.45a6 6 0 0 1-6-6z" stroke="#00c2a8" stroke-width="4" fill="#d7faf5"/><use xlink:href="#r" transform="matrix(1,0,0,1,479.44718454582824,252.3333333333334) translate(0 17.22222222222222)"/><use xlink:href="#s" transform="matrix(1,0,0,1,479.44718454582824,252.3333333333334) translate(50.46006944444444 17.22222222222222)"/><use xlink:href="#o" transform="matrix(1,0,0,1,479.44718454582824,252.3333333333334) translate(0 40.88194444444444)"/><use xlink:href="#p" transform="matrix(1,0,0,1,479.44718454582824,252.3333333333334) translate(45.261501736111114 40.88194444444444)"/><use xlink:href="#q" transform="matrix(1,0,0,1,479.44718454582824,252.3333333333334) translate(0 63.46788194444444)"/><path d="M808.97 253.33a6 6 0 0 1 6-6h221.33a6 6 0 0 1 6 6V328a6 6 0 0 1-6 6H814.97a6 6 0 0 1-6-6z" stroke="#00c2a8" stroke-width="4" fill="#d7faf5"/><use xlink:href="#r" transform="matrix(1,0,0,1,813.9691738594328,252.33333333333343) translate(0 17.22222222222222)"/><use xlink:href="#t" transform="matrix(1,0,0,1,813.9691738594328,252.33333333333343) translate(50.46006944444444 17.22222222222222)"/><use xlink:href="#o" transform="matrix(1,0,0,1,813.9691738594328,252.33333333333343) translate(0 40.88194444444444)"/><use xlink:href="#p" transform="matrix(1,0,0,1,813.9691738594328,252.33333333333343) translate(45.261501736111114 40.88194444444444)"/><use xlink:href="#q" transform="matrix(1,0,0,1,813.9691738594328,252.33333333333343) translate(0 63.46788194444444)"/><path d="M139.93 376.67a6 6 0 0 1 6-6h221.33a6 6 0 0 1 6 6v74.66a6 6 0 0 1-6 6H145.93a6 6 0 0 1-6-6z" stroke="#cbc2a3" stroke-width="4" fill="#f7f4e4"/><use xlink:href="#r" transform="matrix(1,0,0,1,144.92519523222384,375.66666666666663) translate(0 17.22222222222222)"/><use xlink:href="#u" transform="matrix(1,0,0,1,144.92519523222384,375.66666666666663) translate(50.46006944444444 17.22222222222222)"/><use xlink:href="#v" transform="matrix(1,0,0,1,144.92519523222384,375.66666666666663) translate(0 40.88194444444444)"/><use xlink:href="#w" transform="matrix(1,0,0,1,144.92519523222384,375.66666666666663) translate(45.261501736111114 40.88194444444444)"/><use xlink:href="#x" transform="matrix(1,0,0,1,144.92519523222384,375.66666666666663) translate(105.58485243055557 40.88194444444444)"/><use xlink:href="#q" transform="matrix(1,0,0,1,144.92519523222384,375.66666666666663) translate(0 63.46788194444444)"/><path d="M139.93 500a6 6 0 0 1 6-6h221.33a6 6 0 0 1 6 6v74.67a6 6 0 0 1-6 6H145.93a6 6 0 0 1-6-6z" stroke="#cbc2a3" stroke-width="4" fill="#f7f4e4"/><use xlink:href="#r" transform="matrix(1,0,0,1,144.92519523222384,498.9999999999999) translate(0 17.22222222222222)"/><use xlink:href="#y" transform="matrix(1,0,0,1,144.92519523222384,498.9999999999999) translate(50.46006944444444 17.22222222222222)"/><use xlink:href="#v" transform="matrix(1,0,0,1,144.92519523222384,498.9999999999999) translate(0 40.88194444444444)"/><use xlink:href="#w" transform="matrix(1,0,0,1,144.92519523222384,498.9999999999999) translate(45.261501736111114 40.88194444444444)"/><use xlink:href="#x" transform="matrix(1,0,0,1,144.92519523222384,498.9999999999999) translate(105.58485243055557 40.88194444444444)"/><use xlink:href="#q" transform="matrix(1,0,0,1,144.92519523222384,498.9999999999999) translate(0 63.46788194444444)"/><path d="M139.93 623.33a6 6 0 0 1 6-6h221.33a6 6 0 0 1 6 6V698a6 6 0 0 1-6 6H145.93a6 6 0 0 1-6-6z" stroke="#cbc2a3" stroke-width="4" fill="#f7f4e4"/><g><use xlink:href="#r" transform="matrix(1,0,0,1,144.92519523222387,622.333333333333) translate(0 17.22222222222222)"/><use xlink:href="#z" transform="matrix(1,0,0,1,144.92519523222387,622.333333333333) translate(50.46006944444444 17.22222222222222)"/><use xlink:href="#v" transform="matrix(1,0,0,1,144.92519523222387,622.333333333333) translate(0 40.88194444444444)"/><use xlink:href="#w" transform="matrix(1,0,0,1,144.92519523222387,622.333333333333) translate(45.261501736111114 40.88194444444444)"/><use xlink:href="#x" transform="matrix(1,0,0,1,144.92519523222387,622.333333333333) translate(105.58485243055557 40.88194444444444)"/><use xlink:href="#q" transform="matrix(1,0,0,1,144.92519523222387,622.333333333333) translate(0 63.46788194444444)"/></g><path d="M474.45 376.67a6 6 0 0 1 6-6h221.33a6 6 0 0 1 6 6v74.66a6 6 0 0 1-6 6H480.45a6 6 0 0 1-6-6z" stroke="#cbc2a3" stroke-width="4" fill="#f7f4e4"/><g><use xlink:href="#r" transform="matrix(1,0,0,1,479.44718454582824,375.66666666666663) translate(0 17.22222222222222)"/><use xlink:href="#A" transform="matrix(1,0,0,1,479.44718454582824,375.66666666666663) translate(50.46006944444444 17.22222222222222)"/><use xlink:href="#v" transform="matrix(1,0,0,1,479.44718454582824,375.66666666666663) translate(0 40.88194444444444)"/><use xlink:href="#w" transform="matrix(1,0,0,1,479.44718454582824,375.66666666666663) translate(45.261501736111114 40.88194444444444)"/><use xlink:href="#x" transform="matrix(1,0,0,1,479.44718454582824,375.66666666666663) translate(105.58485243055557 40.88194444444444)"/><use xlink:href="#q" transform="matrix(1,0,0,1,479.44718454582824,375.66666666666663) translate(0 63.46788194444444)"/></g><path d="M474.45 500a6 6 0 0 1 6-6h221.33a6 6 0 0 1 6 6v74.67a6 6 0 0 1-6 6H480.45a6 6 0 0 1-6-6z" stroke="#cbc2a3" stroke-width="4" fill="#f7f4e4"/><g><use xlink:href="#r" transform="matrix(1,0,0,1,479.44718454582824,498.99999999999983) translate(0 17.22222222222222)"/><use xlink:href="#B" transform="matrix(1,0,0,1,479.44718454582824,498.99999999999983) translate(50.46006944444444 17.22222222222222)"/><use xlink:href="#v" transform="matrix(1,0,0,1,479.44718454582824,498.99999999999983) translate(0 40.88194444444444)"/><use xlink:href="#w" transform="matrix(1,0,0,1,479.44718454582824,498.99999999999983) translate(45.261501736111114 40.88194444444444)"/><use xlink:href="#x" transform="matrix(1,0,0,1,479.44718454582824,498.99999999999983) translate(105.58485243055557 40.88194444444444)"/><use xlink:href="#q" transform="matrix(1,0,0,1,479.44718454582824,498.99999999999983) translate(0 63.46788194444444)"/></g><path d="M474.45 623.33a6 6 0 0 1 6-6h221.33a6 6 0 0 1 6 6V698a6 6 0 0 1-6 6H480.45a6 6 0 0 1-6-6z" stroke="#cbc2a3" stroke-width="4" fill="#f7f4e4"/><g><use xlink:href="#r" transform="matrix(1,0,0,1,479.44718454582824,622.333333333333) translate(0 17.22222222222222)"/><use xlink:href="#C" transform="matrix(1,0,0,1,479.44718454582824,622.333333333333) translate(50.46006944444444 17.22222222222222)"/><use xlink:href="#v" transform="matrix(1,0,0,1,479.44718454582824,622.333333333333) translate(0 40.88194444444444)"/><use xlink:href="#w" transform="matrix(1,0,0,1,479.44718454582824,622.333333333333) translate(45.261501736111114 40.88194444444444)"/><use xlink:href="#x" transform="matrix(1,0,0,1,479.44718454582824,622.333333333333) translate(105.58485243055557 40.88194444444444)"/><use xlink:href="#q" transform="matrix(1,0,0,1,479.44718454582824,622.333333333333) translate(0 63.46788194444444)"/></g><path d="M808.97 376.67a6 6 0 0 1 6-6h221.33a6 6 0 0 1 6 6v74.66a6 6 0 0 1-6 6H814.97a6 6 0 0 1-6-6z" stroke="#cbc2a3" stroke-width="4" fill="#f7f4e4"/><g><use xlink:href="#r" transform="matrix(1,0,0,1,813.9691738594328,375.66666666666663) translate(0 17.22222222222222)"/><use xlink:href="#D" transform="matrix(1,0,0,1,813.9691738594328,375.66666666666663) translate(50.46006944444444 17.22222222222222)"/><use xlink:href="#v" transform="matrix(1,0,0,1,813.9691738594328,375.66666666666663) translate(0 40.88194444444444)"/><use xlink:href="#w" transform="matrix(1,0,0,1,813.9691738594328,375.66666666666663) translate(45.261501736111114 40.88194444444444)"/><use xlink:href="#x" transform="matrix(1,0,0,1,813.9691738594328,375.66666666666663) translate(105.58485243055557 40.88194444444444)"/><use xlink:href="#q" transform="matrix(1,0,0,1,813.9691738594328,375.66666666666663) translate(0 63.46788194444444)"/></g><path d="M808.97 500a6 6 0 0 1 6-6h221.33a6 6 0 0 1 6 6v74.67a6 6 0 0 1-6 6H814.97a6 6 0 0 1-6-6z" stroke="#cbc2a3" stroke-width="4" fill="#f7f4e4"/><g><use xlink:href="#r" transform="matrix(1,0,0,1,813.9691738594329,498.9999999999999) translate(0 17.22222222222222)"/><use xlink:href="#E" transform="matrix(1,0,0,1,813.9691738594329,498.9999999999999) translate(50.46006944444444 17.22222222222222)"/><use xlink:href="#v" transform="matrix(1,0,0,1,813.9691738594329,498.9999999999999) translate(0 40.88194444444444)"/><use xlink:href="#w" transform="matrix(1,0,0,1,813.9691738594329,498.9999999999999) translate(45.261501736111114 40.88194444444444)"/><use xlink:href="#x" transform="matrix(1,0,0,1,813.9691738594329,498.9999999999999) translate(105.58485243055557 40.88194444444444)"/><use xlink:href="#q" transform="matrix(1,0,0,1,813.9691738594329,498.9999999999999) translate(0 63.46788194444444)"/></g><path d="M808.97 623.33a6 6 0 0 1 6-6h221.33a6 6 0 0 1 6 6V698a6 6 0 0 1-6 6H814.97a6 6 0 0 1-6-6z" stroke="#cbc2a3" stroke-width="4" fill="#f7f4e4"/><g><use xlink:href="#r" transform="matrix(1,0,0,1,813.9691738594329,622.333333333333) translate(0 17.22222222222222)"/><use xlink:href="#F" transform="matrix(1,0,0,1,813.9691738594329,622.333333333333) translate(50.46006944444444 17.22222222222222)"/><use xlink:href="#v" transform="matrix(1,0,0,1,813.9691738594329,622.333333333333) translate(0 40.88194444444444)"/><use xlink:href="#w" transform="matrix(1,0,0,1,813.9691738594329,622.333333333333) translate(45.261501736111114 40.88194444444444)"/><use xlink:href="#x" transform="matrix(1,0,0,1,813.9691738594329,622.333333333333) translate(105.58485243055557 40.88194444444444)"/><use xlink:href="#q" transform="matrix(1,0,0,1,813.9691738594329,622.333333333333) translate(0 63.46788194444444)"/></g><path d="M404.54 438.37h5.8m7.72 0h11.6m7.7 0h5.8M404.54 446.37h5.8m7.72 0h11.6m7.7 0h5.8" stroke="#fe7070" stroke-width="4" fill="none"/><path d="M404.6 440.35h-2.06v-3.96h2.05zM404.6 448.35h-2.06v-3.96h2.05zM445.17 440.35h-2.05v-3.96h2.05zM445.17 448.35h-2.05v-3.96h2.05z" stroke="#fe7070" stroke-width=".05" fill="#fe7070"/><path d="M739.06 438.37h5.8m7.72 0h11.6m7.72 0h5.8M739.06 446.37h5.8m7.72 0h11.6m7.72 0h5.8" stroke="#fe7070" stroke-width="4" fill="none"/><path d="M739.1 440.35h-2.04v-3.96h2.05zM739.1 448.35h-2.04v-3.96h2.05zM779.7 440.35h-2.06v-3.96h2.05zM779.7 448.35h-2.06v-3.96h2.05z" stroke="#fe7070" stroke-width=".05" fill="#fe7070"/><path d="M260.6 740.56v4.8m0 6.4v9.6m0 6.4v4.8a2 2 0 0 0 2 2h5.96m7.97 0h11.95m7.96 0h11.95m7.95 0h11.95m7.96 0h11.95m7.97 0h11.95m7.96 0h11.95m7.96 0h11.94m7.96 0h11.95m7.96 0h11.96m7.96 0h11.95m7.96 0h11.95m7.96 0h11.95m7.95 0h11.95m7.97 0h11.94m7.98 0h11.94m7.97 0h11.93m7.97 0h11.94m7.97 0h11.95m7.97 0h11.94m7.97 0h11.94m7.97 0h11.94m7.97 0h11.94m7.96 0h11.95m7.97 0h11.94m7.98 0h11.95m7.96 0h11.94m7.96 0h11.95m7.96 0h11.96m7.96 0h11.95m7.96 0h11.95m7.96 0h11.95m7.95 0h11.95m7.96 0h5.98a2 2 0 0 0 2-2v-4.8m0-6.4v-9.6m0-6.4v-4.8M252.6 740.56v4.8m0 6.4v9.6m0 6.4v4.8l.12 1.57.36 1.52.6 1.45m4.37 4.37l1.45.6 1.53.37 1.56.12h5.96m7.97 0h11.95m7.96 0h11.95m7.95 0h11.95m7.96 0h11.95m7.97 0h11.95m7.96 0h11.95m7.96 0h11.94m7.96 0h11.95m7.96 0h11.96m7.96 0h11.95m7.96 0h11.95m7.96 0h11.95m7.95 0h11.95m7.97 0h11.94m7.98 0h11.94m7.97 0h11.93m7.97 0h11.94m7.97 0h11.95m7.97 0h11.94m7.97 0h11.94m7.97 0h11.94m7.97 0h11.94m7.96 0h11.95m7.97 0h11.94m7.98 0h11.95m7.96 0h11.94m7.96 0h11.95m7.96 0h11.96m7.96 0h11.95m7.96 0h11.95m7.96 0h11.95m7.95 0h11.95m7.96 0h5.98l1.56-.12 1.53-.37 1.45-.6m4.37-4.37l.6-1.45.36-1.52.14-1.57v-4.8m0-6.4v-9.6m0-6.4v-4.8" stroke="#fe7070" stroke-width="4" fill="none"/><path d="M262.57 740.6h-3.95v-2.04h3.95zM254.57 740.6h-3.95v-2.04h3.95zM923.6 740.6h-3.94v-2.04h3.95zM931.6 740.6h-3.94v-2.04h3.95z" stroke="#fe7070" stroke-width=".05" fill="#fe7070"/><path d="M224.37-4.33a6 6 0 0 1 6-6h721.5a6 6 0 0 1 6 6v35.65a6 6 0 0 1-6 6h-721.5a6 6 0 0 1-6-6z" fill="none"/><g><use xlink:href="#G" transform="matrix(1,0,0,1,229.36622968471704,-5.333333333333371) translate(0.2573784722221717 30.317274305555557)"/><use xlink:href="#H" transform="matrix(1,0,0,1,229.36622968471704,-5.333333333333371) translate(81.08854166666663 30.317274305555557)"/><use xlink:href="#I" transform="matrix(1,0,0,1,229.36622968471704,-5.333333333333371) translate(251.72873263888886 30.317274305555557)"/><use xlink:href="#J" transform="matrix(1,0,0,1,229.36622968471704,-5.333333333333371) translate(369.62586805555554 30.317274305555557)"/><use xlink:href="#K" transform="matrix(1,0,0,1,229.36622968471704,-5.333333333333371) translate(391.54644097222223 30.317274305555557)"/><use xlink:href="#L" transform="matrix(1,0,0,1,229.36622968471704,-5.333333333333371) translate(533.3693576388889 30.317274305555557)"/></g><path d="M479.74 807.73a6 6 0 0 1 6-6H696.5a6 6 0 0 1 6 6v74.62a6 6 0 0 1-6 6H485.73a6 6 0 0 1-6-6z" fill="#fff"/><path d="M483.02 802.38l.87-.36.9-.22.94-.07h3m4.03 0h6.02m4 0h6.02m4.02 0h6.02m4 0h6.03m4 0h6.03m4 0h6.04m4 0H559m4 0h6.04m4 0h6.03m4.02 0h6m4.02 0h6.02m4.02 0h6.02m4 0h6.03m4.03 0h6.02m4 0h6.03m4.02 0h6.02m4 0h6.03m4.02 0h6.02m4 0h6.02m4.02 0h6.02m4 0h3.02l.94.07.92.22.87.36m2.63 2.62l.36.87.2.92.08.93v3.2m0 4.26v6.4m0 4.25v6.4m0 4.26v6.4m0 4.27v6.4m0 4.26v6.4m0 4.26v6.38m0 4.27v3.2l-.07.93-.2.92-.37.87m-2.62 2.62l-.86.35-.92.22-.93.08h-3.03m-4 0h-6.03m-4.02 0h-6.02m-4 0h-6.03m-4.02 0h-6.02m-4 0h-6.03m-4.02 0h-6.02m-4 0h-6.03m-4.02 0h-6m-4.02 0h-6.02m-4.02 0h-6.02m-4 0h-6.03m-4.03 0h-6.02m-4 0H563m-4.02 0h-6.02m-4 0h-6.04m-4 0h-6.03m-4 0h-6.03m-4 0h-6.03m-4.02 0h-6.02m-4 0h-6.03m-4.02 0h-3l-.94-.08-.9-.22-.88-.36m-2.62-2.63l-.36-.87-.22-.92-.08-.93v-3.2m0-4.27v-6.4m0-4.26v-6.4m0-4.25v-6.4m0-4.26v-6.4m0-4.25v-6.4m0-4.26v-6.4m0-4.27v-3.2l.08-.94.22-.93.36-.87" stroke="#000" stroke-width="2" fill="none"/><g><use xlink:href="#M" transform="matrix(1,0,0,1,491.74311549527306,813.7282826057485) translate(0 26.881944444444446)"/><use xlink:href="#N" transform="matrix(1,0,0,1,491.74311549527306,813.7282826057485) translate(88.68489583333333 26.881944444444446)"/><use xlink:href="#O" transform="matrix(1,0,0,1,491.74311549527306,813.7282826057485) translate(146.03841145833331 26.881944444444446)"/><use xlink:href="#P" transform="matrix(1,0,0,1,491.74311549527306,813.7282826057485) translate(0 49.46788194444444)"/><use xlink:href="#Q" transform="matrix(1,0,0,1,491.74311549527306,813.7282826057485) translate(36.048177083333336 49.46788194444444)"/><use xlink:href="#R" transform="matrix(1,0,0,1,491.74311549527306,813.7282826057485) translate(110.27886284722223 49.46788194444444)"/></g><defs><path d="M52 0l541-1490h220L1361 0h-200l-149-416H398L254 0H52zm404-582h497c-103-290-145-390-251-756-108 377-145 460-246 756" id="S"/><path d="M458 0L52-1490h194c108 439 233 855 324 1313 92-459 221-873 331-1313h216c110 438 234 854 330 1307 92-455 216-869 323-1307h196L1558 0h-221l-256-944c-26-95-50-200-73-331-22 122-44 223-73 331L680 0H458" id="T"/><path d="M657 26c-323 0-524-166-541-416h195c15 169 171 246 346 246 202 0 356-106 356-265 5-203-294-238-475-293-239-73-380-191-380-389 0-252 224-419 512-419 294 0 499 171 508 396H992c-17-145-151-228-328-228-193 0-321 102-321 242 0 156 175 211 284 241l149 41c160 44 422 134 422 412 0 244-197 432-541 432" id="U"/><g id="a"><use transform="matrix(0.010850694444444444,0,0,0.010850694444444444,0,0)" xlink:href="#S"/><use transform="matrix(0.010850694444444444,0,0,0.010850694444444444,14.073350694444445,0)" xlink:href="#T"/><use transform="matrix(0.010850694444444444,0,0,0.010850694444444444,35.970052083333336,0)" xlink:href="#U"/></g><path d="M180 0v-1490h510c348 0 508 194 508 460 0 198-88 351-276 417L1256 0h-220L726-579c-117 2-238 0-356 1V0H180zm190-747h312c235 0 327-108 327-283 0-177-92-293-329-293H370v576" id="V"/><path d="M628 24c-324 0-524-230-524-574 0-343 198-582 503-582 237 0 487 146 487 559v75H286c9 234 145 362 343 362 132 0 231-58 273-172l174 48C1024-91 857 24 628 24zM287-650h624c-17-190-120-322-304-322-192 0-309 151-320 322" id="W"/><path d="M611 442c-248 0-391-105-460-228l146-94c47 65 117 165 314 165 178 0 307-82 307-266v-224h-17C863-141 792-18 576-18c-268 0-472-195-472-546 0-346 197-568 476-568 216 0 288 133 326 193h17v-179h175V29c0 289-215 413-487 413zm-5-620c203 0 314-146 314-390 0-237-108-403-314-403-213 0-319 180-319 403 0 230 109 390 319 390" id="X"/><path d="M158 0v-1118h180V0H158zm91-1301c-68 0-125-53-125-119s57-119 125-119c69 0 126 53 126 119s-57 119-126 119" id="Y"/><path d="M613 24c-304 0-509-231-509-576 0-350 205-580 509-580 305 0 511 230 511 580 0 345-206 576-511 576zm0-161c226 0 329-195 329-415 0-222-103-419-329-419-223 0-326 196-326 419 0 220 103 415 326 415" id="Z"/><path d="M338-670V0H158v-1118h173l1 207c72-158 192-221 342-221 226 0 378 139 378 422V0H872v-695c0-172-96-275-252-275-161 0-282 109-282 300" id="aa"/><g id="b"><use transform="matrix(0.010850694444444444,0,0,0.010850694444444444,0,0)" xlink:href="#V"/><use transform="matrix(0.010850694444444444,0,0,0.010850694444444444,13.975694444444445,0)" xlink:href="#W"/><use transform="matrix(0.010850694444444444,0,0,0.010850694444444444,26.931423611111104,0)" xlink:href="#X"/><use transform="matrix(0.010850694444444444,0,0,0.010850694444444444,40.55989583333333,0)" xlink:href="#Y"/><use transform="matrix(0.010850694444444444,0,0,0.010850694444444444,45.94184027777778,0)" xlink:href="#Z"/><use transform="matrix(0.010850694444444444,0,0,0.010850694444444444,59.26649305555555,0)" xlink:href="#aa"/></g><path fill="#1071e5" d="M52 0l541-1490h220L1361 0h-200l-149-416H398L254 0H52zm404-582h497c-103-290-145-390-251-756-108 377-145 460-246 756" id="ab"/><path fill="#1071e5" d="M481 0L54-1118h197c107 314 236 620 325 951 87-331 217-637 324-951h197L670 0H481" id="ac"/><path fill="#1071e5" d="M471 26C259 26 90-98 90-318c0-256 228-303 435-329 202-27 287-16 287-108 0-139-79-219-234-219-161 0-248 86-283 164l-173-57c86-203 278-265 451-265 150 0 419 46 419 395V0H815v-152h-12C765-73 660 26 471 26zm31-159c199 0 310-134 310-271v-155c-30 35-226 55-295 64-131 17-246 59-246 186 0 116 97 176 231 176" id="ad"/><path fill="#1071e5" d="M158 0v-1118h180V0H158zm91-1301c-68 0-125-53-125-119s57-119 125-119c69 0 126 53 126 119s-57 119-126 119" id="ae"/><path fill="#1071e5" d="M338-1490V0H158v-1490h180" id="af"/><path fill="#1071e5" d="M677 24c-213 0-288-135-325-197h-20V0H158v-1490h180v551h14c37-59 106-193 324-193 279 0 474 222 474 576 0 356-194 580-473 580zm-27-161c209 0 317-186 317-421 0-232-105-413-317-413-206 0-314 166-314 413 0 249 111 421 314 421" id="ag"/><path fill="#1071e5" d="M598-1118v154H368v674c0 100 37 144 132 144 23 0 62-6 92-12L629-6c-37 13-88 20-134 20-193 0-307-107-307-290v-688H20v-154h168v-266h180v266h230" id="ah"/><path fill="#1071e5" d="M140 405l46-156c120 36 205 19 263-150l32-93L54-1118h197c107 313 237 620 324 950 87-331 219-637 326-950h196L606 167c-68 178-176 259-334 259-64 0-113-12-132-21" id="ai"/><g id="c"><use transform="matrix(0.008680555555555556,0,0,0.008680555555555556,0,0)" xlink:href="#ab"/><use transform="matrix(0.008680555555555556,0,0,0.008680555555555556,11.059027777777779,0)" xlink:href="#ac"/><use transform="matrix(0.008680555555555556,0,0,0.008680555555555556,20.963541666666668,0)" xlink:href="#ad"/><use transform="matrix(0.008680555555555556,0,0,0.008680555555555556,30.946180555555557,0)" xlink:href="#ae"/><use transform="matrix(0.008680555555555556,0,0,0.008680555555555556,35.251736111111114,0)" xlink:href="#af"/><use transform="matrix(0.008680555555555556,0,0,0.008680555555555556,39.55729166666667,0)" xlink:href="#ad"/><use transform="matrix(0.008680555555555556,0,0,0.008680555555555556,49.53993055555556,0)" xlink:href="#ag"/><use transform="matrix(0.008680555555555556,0,0,0.008680555555555556,60.42534722222222,0)" xlink:href="#ae"/><use transform="matrix(0.008680555555555556,0,0,0.008680555555555556,64.73090277777779,0)" xlink:href="#af"/><use transform="matrix(0.008680555555555556,0,0,0.008680555555555556,69.03645833333334,0)" xlink:href="#ae"/><use transform="matrix(0.008680555555555556,0,0,0.008680555555555556,73.34201388888889,0)" xlink:href="#ah"/><use transform="matrix(0.008680555555555556,0,0,0.008680555555555556,79.50520833333336,0)" xlink:href="#ai"/></g><path fill="#1071e5" d="M130 0v-134l666-991c45-67 96-135 147-202-269 9-546 3-821 5v-168h1036v136L502-379c-49 72-103 145-157 216 268-9 546-3 821-5V0H130" id="aj"/><path fill="#1071e5" d="M613 24c-304 0-509-231-509-576 0-350 205-580 509-580 305 0 511 230 511 580 0 345-206 576-511 576zm0-161c226 0 329-195 329-415 0-222-103-419-329-419-223 0-326 196-326 419 0 220 103 415 326 415" id="ak"/><path fill="#1071e5" d="M338-670V0H158v-1118h173l1 207c72-158 192-221 342-221 226 0 378 139 378 422V0H872v-695c0-172-96-275-252-275-161 0-282 109-282 300" id="al"/><path fill="#1071e5" d="M628 24c-324 0-524-230-524-574 0-343 198-582 503-582 237 0 487 146 487 559v75H286c9 234 145 362 343 362 132 0 231-58 273-172l174 48C1024-91 857 24 628 24zM287-650h624c-17-190-120-322-304-322-192 0-309 151-320 322" id="am"/><g id="d"><use transform="matrix(0.008680555555555556,0,0,0.008680555555555556,0,0)" xlink:href="#aj"/><use transform="matrix(0.008680555555555556,0,0,0.008680555555555556,11.180555555555555,0)" xlink:href="#ak"/><use transform="matrix(0.008680555555555556,0,0,0.008680555555555556,21.84027777777778,0)" xlink:href="#al"/><use transform="matrix(0.008680555555555556,0,0,0.008680555555555556,32.34375,0)" xlink:href="#am"/></g><path fill="#1071e5" d="M653-1490V0H466v-1314h-10L96-1047v-204l324-239h233" id="an"/><g id="e"><use transform="matrix(0.008680555555555556,0,0,0.008680555555555556,0,0)" xlink:href="#an"/><use transform="matrix(0.008680555555555556,0,0,0.008680555555555556,7.230902777777778,0)" xlink:href="#ad"/></g><path fill="#1071e5" d="M180 0v-1490h510c348 0 508 194 508 460 0 198-88 351-276 417L1256 0h-220L726-579c-117 2-238 0-356 1V0H180zm190-747h312c235 0 327-108 327-283 0-177-92-293-329-293H370v576" id="ao"/><path fill="#1071e5" d="M613 24c-304 0-509-231-509-576 0-350 205-580 509-580 216 0 392 114 453 309l-173 49c-33-115-133-197-280-197-223 0-326 196-326 419 0 220 103 415 326 415 150 0 252-85 285-206l172 49C1010-95 832 24 613 24" id="ap"/><path fill="#1071e5" d="M158 0v-1490h180v865h22l478-493h223L593-638 1096 0H865L456-523 338-412V0H158" id="aq"/><path fill="#1071e5" d="M295 13c-75 0-135-60-135-135s60-135 135-135 135 60 135 135S370 13 295 13zm0-809c-75 0-135-60-135-135s60-135 135-135 135 60 135 135-60 135-135 135" id="ar"/><g id="f"><use transform="matrix(0.008680555555555556,0,0,0.008680555555555556,0,0)" xlink:href="#ao"/><use transform="matrix(0.008680555555555556,0,0,0.008680555555555556,11.354166666666668,0)" xlink:href="#ad"/><use transform="matrix(0.008680555555555556,0,0,0.008680555555555556,21.336805555555557,0)" xlink:href="#ap"/><use transform="matrix(0.008680555555555556,0,0,0.008680555555555556,31.493055555555557,0)" xlink:href="#aq"/><use transform="matrix(0.008680555555555556,0,0,0.008680555555555556,41.25,0)" xlink:href="#ar"/></g><path fill="#1071e5" d="M158 0v-1118h174v172h12c41-113 157-188 290-188 26 0 70 2 91 3v181c-11-2-60-10-108-10-161 0-279 109-279 260V0H158" id="as"/><g id="g"><use transform="matrix(0.008680555555555556,0,0,0.008680555555555556,0,0)" xlink:href="#as"/><use transform="matrix(0.008680555555555556,0,0,0.008680555555555556,6.692708333333334,0)" xlink:href="#ad"/><use transform="matrix(0.008680555555555556,0,0,0.008680555555555556,16.67534722222222,0)" xlink:href="#ap"/><use transform="matrix(0.008680555555555556,0,0,0.008680555555555556,26.831597222222218,0)" xlink:href="#aq"/></g><use transform="matrix(0.008680555555555556,0,0,0.008680555555555556,0,0)" xlink:href="#an" id="h"/><g id="i"><use transform="matrix(0.008680555555555556,0,0,0.008680555555555556,0,0)" xlink:href="#an"/><use transform="matrix(0.008680555555555556,0,0,0.008680555555555556,7.230902777777778,0)" xlink:href="#ag"/></g><path fill="#1071e5" d="M154 0v-137l495-537c165-179 249-281 249-418 0-156-121-253-280-253-170 0-278 110-278 278H158c0-264 200-443 465-443 266 0 455 183 455 416 0 161-73 288-336 568L416-179v12h687V0H154" id="at"/><use transform="matrix(0.008680555555555556,0,0,0.008680555555555556,0,0)" xlink:href="#at" id="j"/><g id="k"><use transform="matrix(0.008680555555555556,0,0,0.008680555555555556,0,0)" xlink:href="#an"/><use transform="matrix(0.008680555555555556,0,0,0.008680555555555556,7.230902777777778,0)" xlink:href="#ap"/></g><path fill="#1071e5" d="M635 20c-292 0-500-160-510-396h192c11 142 145 229 315 229 187 0 323-105 323-260 0-161-125-274-346-274H488v-165h121c174 0 294-100 294-254 0-148-104-245-266-245-152 0-291 85-297 230H157c8-234 222-395 484-395 278 0 448 188 448 400 0 168-95 291-247 336v12c190 31 301 169 301 357 0 244-216 425-508 425" id="au"/><use transform="matrix(0.008680555555555556,0,0,0.008680555555555556,0,0)" xlink:href="#au" id="l"/><path d="M135 0v-1490h340l471 754c59 97 122 210 187 365-32-387-14-721-19-1119h312V0h-341C855-382 627-689 427-1113c32 420 16 695 20 1113H135" id="av"/><path d="M628 22C291 22 81-210 81-554c0-346 210-578 547-578 336 0 547 232 547 578 0 344-211 576-547 576zm0-236c160 0 242-146 242-341 0-197-82-341-242-341S387-753 387-555c0 195 81 341 241 341" id="aw"/><path d="M537 19C279 19 81-185 81-557c0-382 206-575 454-575 190 0 278 113 318 202h10v-560h300V0H868v-179h-15C812-89 719 19 537 19zm92-241c153 0 240-134 240-336 0-203-86-334-240-334-158 0-240 138-240 334 0 197 84 336 240 336" id="ax"/><path d="M633 22C291 22 81-200 81-553c0-345 210-579 537-579 292 0 525 185 525 567v84H378c7 183 109 277 260 277 105 0 184-46 216-132l272 51C1071-99 893 22 633 22zM380-669h474c-15-146-94-237-233-237-143 0-229 99-241 237" id="ay"/><g id="m"><use transform="matrix(0.008680555555555556,0,0,0.008680555555555556,0,0)" xlink:href="#av"/><use transform="matrix(0.008680555555555556,0,0,0.008680555555555556,13.550347222222223,0)" xlink:href="#aw"/><use transform="matrix(0.008680555555555556,0,0,0.008680555555555556,24.453125,0)" xlink:href="#ax"/><use transform="matrix(0.008680555555555556,0,0,0.008680555555555556,35.65972222222222,0)" xlink:href="#ay"/></g><path d="M749-1490V0H444v-1221h-10L93-980v-279l329-231h327" id="az"/><use transform="matrix(0.008680555555555556,0,0,0.008680555555555556,0,0)" xlink:href="#az" id="n"/><path d="M98-1322v-168h1126v168H757V0H567v-1322H98" id="aA"/><path d="M140 405l46-156c120 36 205 19 263-150l32-93L54-1118h197c107 313 237 620 324 950 87-331 219-637 326-950h196L606 167c-68 178-176 259-334 259-64 0-113-12-132-21" id="aB"/><path d="M158 418v-1536h174v179h20c37-59 106-193 324-193 279 0 474 222 474 576 0 356-194 580-473 580-213 0-288-135-325-197h-14v591H158zm492-555c209 0 317-186 317-421 0-232-105-413-317-413-206 0-314 166-314 413 0 249 111 421 314 421" id="aC"/><path d="M295 13c-75 0-135-60-135-135s60-135 135-135 135 60 135 135S370 13 295 13zm0-809c-75 0-135-60-135-135s60-135 135-135 135 60 135 135-60 135-135 135" id="aD"/><g id="o"><use transform="matrix(0.007595486111111112,0,0,0.007595486111111112,0,0)" xlink:href="#aA"/><use transform="matrix(0.007595486111111112,0,0,0.007595486111111112,9.069010416666668,0)" xlink:href="#aB"/><use transform="matrix(0.007595486111111112,0,0,0.007595486111111112,17.811414930555557,0)" xlink:href="#aC"/><use transform="matrix(0.007595486111111112,0,0,0.007595486111111112,27.336154513888893,0)" xlink:href="#W"/><use transform="matrix(0.007595486111111112,0,0,0.007595486111111112,36.40516493055556,0)" xlink:href="#aD"/></g><path d="M577 24c-279 0-473-224-473-580 0-354 195-576 474-576 218 0 287 134 324 193h14v-551h180V0H922v-173h-20C865-111 790 24 577 24zm27-161c203 0 314-172 314-421 0-247-108-413-314-413-212 0-317 181-317 413 0 235 108 421 317 421" id="aE"/><g id="p"><use transform="matrix(0.007595486111111112,0,0,0.007595486111111112,0,0)" xlink:href="#U"/><use transform="matrix(0.007595486111111112,0,0,0.007595486111111112,9.980468750000002,0)" xlink:href="#W"/><use transform="matrix(0.007595486111111112,0,0,0.007595486111111112,19.04947916666667,0)" xlink:href="#W"/><use transform="matrix(0.007595486111111112,0,0,0.007595486111111112,28.11848958333334,0)" xlink:href="#aE"/></g><path d="M158 0v-1118h175l1 205c55-151 181-225 313-225 147 0 245 90 285 228 53-141 190-228 352-228 194 0 352 125 352 384V0h-181v-749c0-161-105-225-225-225-151 0-243 103-243 244V0H807v-767c0-124-93-207-219-207-131 0-250 92-250 270V0H158" id="aF"/><path d="M633 20c-303 0-511-173-511-416 0-188 124-348 291-378v-8c-145-37-237-174-237-332 0-227 192-396 457-396 261 0 456 169 456 396 0 158-94 295-235 332v8c162 30 291 190 291 378 0 243-212 416-512 416zm0-165c197 0 322-103 322-261 0-165-138-283-322-283-188 0-324 118-324 283 0 158 123 261 324 261zm0-703c157 0 272-101 272-252 0-149-110-246-272-246-165 0-273 97-273 246 0 151 112 252 273 252" id="aG"/><path d="M295 13c-75 0-135-60-135-135s60-135 135-135 135 60 135 135S370 13 295 13" id="aH"/><path d="M154 0v-137l495-537c165-179 249-281 249-418 0-156-121-253-280-253-170 0-278 110-278 278H158c0-264 200-443 465-443 266 0 455 183 455 416 0 161-73 288-336 568L416-179v12h687V0H154" id="aI"/><path d="M65 0l393-574-370-544h210c88 136 192 297 267 435 67-142 176-302 264-435h206L661-564 1053 0H844c-94-144-206-310-287-458C484-308 366-142 273 0H65" id="aJ"/><path d="M338-1490V0H158v-1490h180" id="aK"/><path d="M471 26C259 26 90-98 90-318c0-256 228-303 435-329 202-27 287-16 287-108 0-139-79-219-234-219-161 0-248 86-283 164l-173-57c86-203 278-265 451-265 150 0 419 46 419 395V0H815v-152h-12C765-73 660 26 471 26zm31-159c199 0 310-134 310-271v-155c-30 35-226 55-295 64-131 17-246 59-246 186 0 116 97 176 231 176" id="aL"/><path d="M158 0v-1118h174v172h12c41-113 157-188 290-188 26 0 70 2 91 3v181c-11-2-60-10-108-10-161 0-279 109-279 260V0H158" id="aM"/><g id="q"><use transform="matrix(0.007595486111111112,0,0,0.007595486111111112,0,0)" xlink:href="#aF"/><use transform="matrix(0.007595486111111112,0,0,0.007595486111111112,13.626302083333334,0)" xlink:href="#aG"/><use transform="matrix(0.007595486111111112,0,0,0.007595486111111112,23.249782986111114,0)" xlink:href="#X"/><use transform="matrix(0.007595486111111112,0,0,0.007595486111111112,32.78971354166667,0)" xlink:href="#aH"/><use transform="matrix(0.007595486111111112,0,0,0.007595486111111112,37.27105034722223,0)" xlink:href="#aI"/><use transform="matrix(0.007595486111111112,0,0,0.007595486111111112,46.75781250000001,0)" xlink:href="#aJ"/><use transform="matrix(0.007595486111111112,0,0,0.007595486111111112,55.24956597222223,0)" xlink:href="#aK"/><use transform="matrix(0.007595486111111112,0,0,0.007595486111111112,59.01692708333334,0)" xlink:href="#aL"/><use transform="matrix(0.007595486111111112,0,0,0.007595486111111112,67.75173611111111,0)" xlink:href="#aM"/><use transform="matrix(0.007595486111111112,0,0,0.007595486111111112,73.34960937500001,0)" xlink:href="#X"/><use transform="matrix(0.007595486111111112,0,0,0.007595486111111112,82.88953993055557,0)" xlink:href="#W"/></g><g id="r"><use transform="matrix(0.008680555555555556,0,0,0.008680555555555556,0,0)" xlink:href="#av"/><use transform="matrix(0.008680555555555556,0,0,0.008680555555555556,13.550347222222223,0)" xlink:href="#aw"/><use transform="matrix(0.008680555555555556,0,0,0.008680555555555556,24.453125,0)" xlink:href="#ax"/><use transform="matrix(0.008680555555555556,0,0,0.008680555555555556,35.65972222222222,0)" xlink:href="#ay"/></g><path d="M124 0v-220l528-495c135-132 210-216 210-336 0-133-98-215-231-215-139 0-229 88-229 233H110c0-290 214-477 523-477 315 0 525 182 525 440 0 167-80 305-385 586L548-262v11h630V0H124" id="aN"/><use transform="matrix(0.008680555555555556,0,0,0.008680555555555556,0,0)" xlink:href="#aN" id="s"/><path d="M659 20C335 20 103-159 99-418h307c5 112 113 185 254 185 147 0 250-83 250-204 0-123-105-209-278-209H494v-227h138c145 0 246-81 246-200 0-115-87-193-216-193-130 0-237 73-240 189H128c4-255 233-433 536-433 306 0 510 185 510 418 0 167-114 285-279 317v11c217 29 333 162 333 347 0 254-237 437-569 437" id="aO"/><use transform="matrix(0.008680555555555556,0,0,0.008680555555555556,0,0)" xlink:href="#aO" id="t"/><path d="M101-265v-241l623-984h383v979h186v246h-186V0H814v-265H101zm719-246v-643h-12L409-523v12h411" id="aP"/><use transform="matrix(0.008680555555555556,0,0,0.008680555555555556,0,0)" xlink:href="#aP" id="u"/><g id="v"><use transform="matrix(0.007595486111111112,0,0,0.007595486111111112,0,0)" xlink:href="#aA"/><use transform="matrix(0.007595486111111112,0,0,0.007595486111111112,9.069010416666668,0)" xlink:href="#aB"/><use transform="matrix(0.007595486111111112,0,0,0.007595486111111112,17.811414930555557,0)" xlink:href="#aC"/><use transform="matrix(0.007595486111111112,0,0,0.007595486111111112,27.336154513888893,0)" xlink:href="#W"/><use transform="matrix(0.007595486111111112,0,0,0.007595486111111112,36.40516493055556,0)" xlink:href="#aD"/></g><path d="M537 14c-226 0-379-139-379-422v-710h180v695c0 172 97 275 253 275 160 0 281-109 281-300v-670h181V0H879v-209C806-46 684 14 537 14" id="aQ"/><g id="w"><use transform="matrix(0.007595486111111112,0,0,0.007595486111111112,0,0)" xlink:href="#V"/><use transform="matrix(0.007595486111111112,0,0,0.007595486111111112,9.78298611111111,0)" xlink:href="#W"/><use transform="matrix(0.007595486111111112,0,0,0.007595486111111112,18.85199652777778,0)" xlink:href="#X"/><use transform="matrix(0.007595486111111112,0,0,0.007595486111111112,28.391927083333336,0)" xlink:href="#aQ"/><use transform="matrix(0.007595486111111112,0,0,0.007595486111111112,37.59006076388889,0)" xlink:href="#aK"/><use transform="matrix(0.007595486111111112,0,0,0.007595486111111112,41.35742187500001,0)" xlink:href="#aL"/><use transform="matrix(0.007595486111111112,0,0,0.007595486111111112,50.092230902777786,0)" xlink:href="#aM"/></g><path d="M180 0v-1490h224l606 953c40 63 108 177 176 312-27-437-7-821-13-1265h190V0h-226C860-448 622-778 356-1262c27 476 11 792 15 1262H180" id="aR"/><g id="x"><use transform="matrix(0.007595486111111112,0,0,0.007595486111111112,0,0)" xlink:href="#aR"/><use transform="matrix(0.007595486111111112,0,0,0.007595486111111112,11.719835069444446,0)" xlink:href="#Z"/><use transform="matrix(0.007595486111111112,0,0,0.007595486111111112,21.047092013888893,0)" xlink:href="#aE"/><use transform="matrix(0.007595486111111112,0,0,0.007595486111111112,30.57183159722223,0)" xlink:href="#W"/></g><path d="M177 0l620-1228v-10H75v-252h1041v256L494 0H177" id="aS"/><use transform="matrix(0.008680555555555556,0,0,0.008680555555555556,0,0)" xlink:href="#aS" id="y"/><path d="M690 20C314 20 94-261 94-744c0-482 221-766 596-766 376 0 597 284 597 766 0 483-219 764-597 764zm0-253c184 0 286-184 286-511 0-328-102-514-286-514-183 0-285 187-285 514s101 511 285 511" id="aT"/><g id="z"><use transform="matrix(0.008680555555555556,0,0,0.008680555555555556,0,0)" xlink:href="#az"/><use transform="matrix(0.008680555555555556,0,0,0.008680555555555556,7.664930555555556,0)" xlink:href="#aT"/></g><path d="M664 20c-306 0-529-183-535-438h297c6 117 110 196 238 196 149 0 255-108 255-266 0-159-108-270-261-270-89 0-178 39-224 98l-274-48 72-782h901v252H485l-39 377h8c53-72 165-124 294-124 269 0 467 204 467 490 0 300-224 515-551 515" id="aU"/><use transform="matrix(0.008680555555555556,0,0,0.008680555555555556,0,0)" xlink:href="#aU" id="A"/><path d="M666 20C332 20 94-158 94-400c0-186 139-340 321-370v-9c-159-33-267-168-267-331 0-230 219-400 518-400 298 0 519 171 519 400 0 163-111 298-266 331v9c177 30 321 184 321 370 0 242-241 420-574 420zm0-226c153 0 255-89 255-218 0-131-108-226-255-226-148 0-255 94-255 226 0 128 101 218 255 218zm0-668c127 0 220-84 220-203s-90-200-220-200-220 80-220 200c0 119 92 203 220 203" id="aV"/><use transform="matrix(0.008680555555555556,0,0,0.008680555555555556,0,0)" xlink:href="#aV" id="B"/><g id="C"><use transform="matrix(0.008680555555555556,0,0,0.008680555555555556,0,0)" xlink:href="#az"/><use transform="matrix(0.008680555555555556,0,0,0.008680555555555556,7.664930555555556,0)" xlink:href="#az"/></g><path d="M684 20C381 20 94-164 94-710c0-501 235-800 601-800 293 0 496 188 526 433H921c-25-105-108-170-226-170-197 0-301 182-301 476h10c67-130 211-208 374-208 263 0 459 201 459 481 0 301-224 518-553 518zm-2-242c147 0 258-116 258-268 0-150-108-266-256-266-146 0-259 121-259 267 0 147 109 267 257 267" id="aW"/><use transform="matrix(0.008680555555555556,0,0,0.008680555555555556,0,0)" xlink:href="#aW" id="D"/><path d="M636 22c-294 0-497-190-527-437h302c24 106 107 174 225 174 196 0 302-184 302-479h-10c-68 129-211 209-374 209-265 0-460-202-460-482 0-301 224-521 555-519 300 2 588 186 588 731 0 502-235 803-601 803zm11-757c147 0 260-121 260-268 0-144-109-265-258-265-147 0-258 117-258 267 0 151 108 266 256 266" id="aX"/><use transform="matrix(0.008680555555555556,0,0,0.008680555555555556,0,0)" xlink:href="#aX" id="E"/><g id="F"><use transform="matrix(0.008680555555555556,0,0,0.008680555555555556,0,0)" xlink:href="#az"/><use transform="matrix(0.008680555555555556,0,0,0.008680555555555556,7.664930555555556,0)" xlink:href="#aN"/></g><path d="M49 0l509-1490h400L1480 0h-339l-115-346H497L386 0H49zm524-585h374c-75-213-124-402-192-666-66 268-110 453-182 666" id="aY"/><path d="M449 0L49-1490h333c89 395 194 758 253 1185 65-426 176-790 269-1185h317c93 394 201 758 268 1181 60-425 164-788 253-1181h334L1675 0h-348c-90-376-204-711-266-1118C1004-714 886-373 798 0H449" id="aZ"/><path d="M681 22C323 22 94-145 85-462h297c10 151 131 226 296 226 163 0 271-77 271-190 0-102-95-149-257-189l-164-41c-252-61-403-188-403-405 0-269 236-449 560-449 330 0 546 183 551 445H941c-11-119-106-188-259-188-156 0-244 72-244 172-3 156 226 185 373 221 250 61 445 186 445 436 0 271-213 446-575 446" id="ba"/><g id="G"><use transform="matrix(0.015190972222222224,0,0,0.015190972222222224,0,0)" xlink:href="#aY"/><use transform="matrix(0.015190972222222224,0,0,0.015190972222222224,20.99392361111111,0)" xlink:href="#aZ"/><use transform="matrix(0.015190972222222224,0,0,0.015190972222222224,53.09244791666667,0)" xlink:href="#ba"/></g><path d="M786 20C389 20 94-260 94-744c0-487 299-766 692-766 339 0 597 194 641 529h-309c-28-162-156-258-326-258-233 0-388 179-388 495 0 323 157 493 387 493 170 0 298-97 328-259h309c-34 277-266 530-642 530" id="bb"/><path d="M440 22C227 22 68-92 68-313c0-250 202-322 422-343 195-21 271-24 271-105 0-95-63-149-175-149-116 0-187 57-211 129l-275-46c57-194 237-305 487-305 240 0 474 108 474 379V0H777v-155h-10C713-51 605 22 440 22zm85-211c140 0 238-93 238-211v-121c-37 26-156 42-222 51-111 16-185 59-185 149 0 87 70 132 169 132" id="bc"/><path d="M572 22C302 22 117-98 78-306l279-48c29 105 101 156 224 156 114 0 185-48 185-115 0-118-228-130-337-155-215-49-322-150-322-317 0-215 187-347 470-347 265 0 424 116 466 298l-266 47c-24-76-87-130-196-130-98 0-174 46-174 113 0 56 38 95 144 117l201 40c216 44 320 143 320 302 0 220-207 367-500 367" id="bd"/><path d="M428-647V0H128v-1118h283l4 231c63-156 176-245 348-245 232 0 384 159 384 421V0H847v-659c0-139-76-222-202-222-128 0-217 86-217 234" id="be"/><path d="M128 0v-1118h290v195h12c54-169 184-238 367-200v268c-27-8-86-15-130-15-138 0-239 95-239 234V0H128" id="bf"/><g id="H"><use transform="matrix(0.015190972222222224,0,0,0.015190972222222224,0,0)" xlink:href="#bb"/><use transform="matrix(0.015190972222222224,0,0,0.015190972222222224,23.014322916666668,0)" xlink:href="#bc"/><use transform="matrix(0.015190972222222224,0,0,0.015190972222222224,41.07638888888889,0)" xlink:href="#bd"/><use transform="matrix(0.015190972222222224,0,0,0.015190972222222224,58.500434027777786,0)" xlink:href="#bd"/><use transform="matrix(0.015190972222222224,0,0,0.015190972222222224,75.92447916666667,0)" xlink:href="#bc"/><use transform="matrix(0.015190972222222224,0,0,0.015190972222222224,93.9865451388889,0)" xlink:href="#be"/><use transform="matrix(0.015190972222222224,0,0,0.015190972222222224,113.35503472222223,0)" xlink:href="#ax"/><use transform="matrix(0.015190972222222224,0,0,0.015190972222222224,132.96657986111111,0)" xlink:href="#bf"/><use transform="matrix(0.015190972222222224,0,0,0.015190972222222224,145.21050347222223,0)" xlink:href="#bc"/></g><path d="M428-1490V0H128v-1490h300" id="bg"/><path d="M513 14c-232 0-385-159-385-421v-711h300v659c0 139 76 222 202 222 127 0 217-86 217-234v-647h301V0H864l-4-232C797-74 683 14 513 14" id="bh"/><path d="M683-1118v229H474v562c0 71 29 104 102 104 23 0 73-7 95-13l43 225C647 9 580 16 520 16 296 16 174-96 174-301v-588H20v-229h154v-266h300v266h209" id="bi"/><g id="I"><use transform="matrix(0.015190972222222224,0,0,0.015190972222222224,0,0)" xlink:href="#bb"/><use transform="matrix(0.015190972222222224,0,0,0.015190972222222224,23.014322916666668,0)" xlink:href="#bg"/><use transform="matrix(0.015190972222222224,0,0,0.015190972222222224,31.445312500000004,0)" xlink:href="#bh"/><use transform="matrix(0.015190972222222224,0,0,0.015190972222222224,50.813802083333336,0)" xlink:href="#bd"/><use transform="matrix(0.015190972222222224,0,0,0.015190972222222224,68.23784722222223,0)" xlink:href="#bi"/><use transform="matrix(0.015190972222222224,0,0,0.015190972222222224,79.32725694444446,0)" xlink:href="#ay"/><use transform="matrix(0.015190972222222224,0,0,0.015190972222222224,97.86024305555557,0)" xlink:href="#bf"/></g><path d="M818-733v240H140v-240h678" id="bj"/><use transform="matrix(0.015190972222222224,0,0,0.015190972222222224,0,0)" xlink:href="#bj" id="J"/><path d="M135 0v-1490h468l242 684c30 94 76 293 111 455 34-161 80-360 110-455l238-684h470V0h-307c0-447-3-765 11-1227-122 503-246 788-395 1227H826C676-435 552-717 427-1215c15 453 11 775 11 1215H135" id="bk"/><path d="M128 0v-1118h300V0H128zm150-1264c-91 0-165-68-165-154 0-85 74-154 165-154 90 0 165 69 165 154 0 86-75 154-165 154" id="bl"/><path d="M115 0v-183l604-853c49-68 106-137 165-205-253 8-513 2-772 4v-253h1133v184L652-468c-53 73-113 147-176 220 253-10 513-3 772-5V0H115" id="bm"/><g id="K"><use transform="matrix(0.015190972222222224,0,0,0.015190972222222224,0,0)" xlink:href="#bk"/><use transform="matrix(0.015190972222222224,0,0,0.015190972222222224,28.984375000000004,0)" xlink:href="#bh"/><use transform="matrix(0.015190972222222224,0,0,0.015190972222222224,48.35286458333334,0)" xlink:href="#bg"/><use transform="matrix(0.015190972222222224,0,0,0.015190972222222224,57.23958333333334,0)" xlink:href="#bi"/><use transform="matrix(0.015190972222222224,0,0,0.015190972222222224,68.63281250000001,0)" xlink:href="#bl"/><use transform="matrix(0.015190972222222224,0,0,0.015190972222222224,77.06380208333334,0)" xlink:href="#bj"/><use transform="matrix(0.015190972222222224,0,0,0.015190972222222224,90.5685763888889,0)" xlink:href="#aY"/><use transform="matrix(0.015190972222222224,0,0,0.015190972222222224,113.79557291666669,0)" xlink:href="#bm"/></g><path d="M628 22C291 22 81-210 81-554c0-346 210-578 547-578 265 0 455 142 497 372l-279 52c-25-116-99-188-215-188-160 0-244 139-244 341 0 200 84 341 244 341 116 0 193-74 217-195l279 51C1085-123 896 22 628 22" id="bn"/><path d="M428-647V0H128v-1490h294v586c65-146 175-228 341-228 232 0 385 159 385 421V0H847v-659c0-139-76-222-202-222-128 0-217 86-217 234" id="bo"/><g id="L"><use transform="matrix(0.015190972222222224,0,0,0.015190972222222224,0,0)" xlink:href="#aY"/><use transform="matrix(0.015190972222222224,0,0,0.015190972222222224,23.22699652777778,0)" xlink:href="#bf"/><use transform="matrix(0.015190972222222224,0,0,0.015190972222222224,35.13671875,0)" xlink:href="#bn"/><use transform="matrix(0.015190972222222224,0,0,0.015190972222222224,53.44184027777778,0)" xlink:href="#bo"/><use transform="matrix(0.015190972222222224,0,0,0.015190972222222224,72.81032986111111,0)" xlink:href="#bl"/><use transform="matrix(0.015190972222222224,0,0,0.015190972222222224,81.24131944444444,0)" xlink:href="#bi"/><use transform="matrix(0.015190972222222224,0,0,0.015190972222222224,92.33072916666667,0)" xlink:href="#ay"/><use transform="matrix(0.015190972222222224,0,0,0.015190972222222224,110.86371527777779,0)" xlink:href="#bn"/><use transform="matrix(0.015190972222222224,0,0,0.015190972222222224,129.16883680555557,0)" xlink:href="#bi"/><use transform="matrix(0.015190972222222224,0,0,0.015190972222222224,140.56206597222223,0)" xlink:href="#bh"/><use transform="matrix(0.015190972222222224,0,0,0.015190972222222224,159.93055555555557,0)" xlink:href="#bf"/><use transform="matrix(0.015190972222222224,0,0,0.015190972222222224,171.8402777777778,0)" xlink:href="#ay"/></g><path d="M135 0v-1490h581c339 0 533 192 533 485 0 204-94 351-264 424L1302 0H964L680-532H440V0H135zm305-779h220c186 0 274-77 274-226 0-150-88-233-275-233H440v459" id="bp"/><path d="M128 418v-1536h295v188h14c41-89 129-202 319-202 248 0 453 193 453 575 0 372-197 576-455 576-183 0-275-108-317-198h-9v597H128zm534-640c156 0 240-139 240-336 0-196-83-334-240-334-154 0-241 131-241 334 0 202 88 336 241 336" id="bq"/><g id="M"><use transform="matrix(0.007595486111111112,0,0,0.007595486111111112,0,0)" xlink:href="#bp"/><use transform="matrix(0.007595486111111112,0,0,0.007595486111111112,10.026041666666666,0)" xlink:href="#ay"/><use transform="matrix(0.007595486111111112,0,0,0.007595486111111112,19.29253472222222,0)" xlink:href="#bq"/><use transform="matrix(0.007595486111111112,0,0,0.007595486111111112,29.098307291666664,0)" xlink:href="#bg"/><use transform="matrix(0.007595486111111112,0,0,0.007595486111111112,33.31380208333333,0)" xlink:href="#bl"/><use transform="matrix(0.007595486111111112,0,0,0.007595486111111112,37.52929687499999,0)" xlink:href="#bn"/><use transform="matrix(0.007595486111111112,0,0,0.007595486111111112,46.8337673611111,0)" xlink:href="#bc"/><use transform="matrix(0.007595486111111112,0,0,0.007595486111111112,55.864800347222214,0)" xlink:href="#bi"/><use transform="matrix(0.007595486111111112,0,0,0.007595486111111112,61.56141493055555,0)" xlink:href="#bl"/><use transform="matrix(0.007595486111111112,0,0,0.007595486111111112,65.77690972222221,0)" xlink:href="#aw"/><use transform="matrix(0.007595486111111112,0,0,0.007595486111111112,75.31684027777777,0)" xlink:href="#be"/></g><path d="M135 0v-1490h980v253H440v416h609v249H440V0H135" id="br"/><path d="M342-723c-98 0-173-75-173-172s75-172 173-172 173 75 173 172-75 172-173 172zm0 742c-98 0-173-75-173-172s75-172 173-172 173 75 173 172S440 19 342 19" id="bs"/><g id="N"><use transform="matrix(0.007595486111111112,0,0,0.007595486111111112,0,0)" xlink:href="#br"/><use transform="matrix(0.007595486111111112,0,0,0.007595486111111112,8.871527777777779,0)" xlink:href="#bc"/><use transform="matrix(0.007595486111111112,0,0,0.007595486111111112,17.902560763888893,0)" xlink:href="#bn"/><use transform="matrix(0.007595486111111112,0,0,0.007595486111111112,27.055121527777782,0)" xlink:href="#bi"/><use transform="matrix(0.007595486111111112,0,0,0.007595486111111112,32.59982638888889,0)" xlink:href="#aw"/><use transform="matrix(0.007595486111111112,0,0,0.007595486111111112,42.13975694444445,0)" xlink:href="#bf"/><use transform="matrix(0.007595486111111112,0,0,0.007595486111111112,48.474392361111114,0)" xlink:href="#bs"/></g><path d="M197-230v-252h997v252H197zm0-479v-251h997v251H197" id="bt"/><g id="O"><use transform="matrix(0.007595486111111112,0,0,0.007595486111111112,0,0)" xlink:href="#bp"/><use transform="matrix(0.007595486111111112,0,0,0.007595486111111112,10.215928819444445,0)" xlink:href="#br"/><use transform="matrix(0.007595486111111112,0,0,0.007595486111111112,19.345703125,0)" xlink:href="#bt"/><use transform="matrix(0.007595486111111112,0,0,0.007595486111111112,29.903428819444443,0)" xlink:href="#aO"/></g><path fill="#fe7070" d="M197-230v-252h997v252H197zm0-479v-251h997v251H197" id="bu"/><g id="P"><use transform="matrix(0.007595486111111112,0,0,0.007595486111111112,0,0)" xlink:href="#bu"/><use transform="matrix(0.007595486111111112,0,0,0.007595486111111112,10.557725694444445,0)" xlink:href="#bu"/><use transform="matrix(0.007595486111111112,0,0,0.007595486111111112,21.11545138888889,0)" xlink:href="#bu"/></g><path d="M783 20c-382 0-661-292-661-764 0-473 279-766 661-766 302 0 548 182 601 489h-190c-42-204-217-313-411-313-268 0-476 208-476 590 0 381 209 588 476 588 195 0 369-110 411-313h190c-52 303-296 489-601 489" id="bv"/><path d="M538 24C308 24 148-78 108-271l171-41c32 123 123 178 257 178 156 0 256-77 256-169 0-77-54-128-164-154l-186-44c-203-48-300-148-300-305 0-192 176-326 414-326 230 0 351 112 402 269l-163 42c-31-80-94-158-238-158-133 0-233 69-233 162 0 83 57 129 188 160l169 40c203 48 298 149 298 302 0 196-179 339-441 339" id="bw"/><path d="M798-719v166H144v-166h654" id="bx"/><path d="M130 0v-134l666-991c45-67 96-135 147-202-269 9-546 3-821 5v-168h1036v136L502-379c-49 72-103 145-157 216 268-9 546-3 821-5V0H130" id="by"/><g id="Q"><use transform="matrix(0.007595486111111112,0,0,0.007595486111111112,0,0)" xlink:href="#bv"/><use transform="matrix(0.007595486111111112,0,0,0.007595486111111112,11.362847222222223,0)" xlink:href="#aM"/><use transform="matrix(0.007595486111111112,0,0,0.007595486111111112,16.96072048611111,0)" xlink:href="#Z"/><use transform="matrix(0.007595486111111112,0,0,0.007595486111111112,26.287977430555557,0)" xlink:href="#bw"/><use transform="matrix(0.007595486111111112,0,0,0.007595486111111112,34.49869791666667,0)" xlink:href="#bw"/><use transform="matrix(0.007595486111111112,0,0,0.007595486111111112,42.709418402777786,0)" xlink:href="#bx"/><use transform="matrix(0.007595486111111112,0,0,0.007595486111111112,49.340277777777786,0)" xlink:href="#S"/><use transform="matrix(0.007595486111111112,0,0,0.007595486111111112,60.072699652777786,0)" xlink:href="#by"/></g><path d="M613 24c-304 0-509-231-509-576 0-350 205-580 509-580 216 0 392 114 453 309l-173 49c-33-115-133-197-280-197-223 0-326 196-326 419 0 220 103 415 326 415 150 0 252-85 285-206l172 49C1010-95 832 24 613 24" id="bz"/><path d="M598-1118v154H368v674c0 100 37 144 132 144 23 0 62-6 92-12L629-6c-37 13-88 20-134 20-193 0-307-107-307-290v-688H20v-154h168v-266h180v266h230" id="bA"/><g id="R"><use transform="matrix(0.007595486111111112,0,0,0.007595486111111112,0,0)" xlink:href="#aM"/><use transform="matrix(0.007595486111111112,0,0,0.007595486111111112,5.597873263888889,0)" xlink:href="#W"/><use transform="matrix(0.007595486111111112,0,0,0.007595486111111112,14.666883680555557,0)" xlink:href="#aC"/><use transform="matrix(0.007595486111111112,0,0,0.007595486111111112,24.191623263888893,0)" xlink:href="#aK"/><use transform="matrix(0.007595486111111112,0,0,0.007595486111111112,27.958984375000004,0)" xlink:href="#Y"/><use transform="matrix(0.007595486111111112,0,0,0.007595486111111112,31.726345486111114,0)" xlink:href="#bz"/><use transform="matrix(0.007595486111111112,0,0,0.007595486111111112,40.764973958333336,0)" xlink:href="#aL"/><use transform="matrix(0.007595486111111112,0,0,0.007595486111111112,49.499782986111114,0)" xlink:href="#bA"/><use transform="matrix(0.007595486111111112,0,0,0.007595486111111112,54.58875868055556,0)" xlink:href="#Y"/><use transform="matrix(0.007595486111111112,0,0,0.007595486111111112,58.35611979166667,0)" xlink:href="#Z"/><use transform="matrix(0.007595486111111112,0,0,0.007595486111111112,67.68337673611111,0)" xlink:href="#aa"/></g></defs></g></svg>